<svg id="Layer_1" height="512" viewBox="0 0 128 128" width="512" xmlns="http://www.w3.org/2000/svg" data-name="Layer 1"><path d="m113.25 37.753h3.75a1.75 1.75 0 0 0 1.75-1.753v-8.8a1.75 1.75 0 0 0 -1.75-1.75h-87.6a20.14 20.14 0 0 0 -8.175 38.55 20.14 20.14 0 0 0 8.175 38.551h87.6a1.75 1.75 0 0 0 1.75-1.75v-8.801a1.75 1.75 0 0 0 -1.75-1.75h-3.75v-15.696h3.75a1.75 1.75 0 0 0 1.75-1.75v-17.604a1.75 1.75 0 0 0 -1.75-1.75h-3.75zm-3.5 3.024h-68.531a1.75 1.75 0 0 0 0 3.5h55.25v2.645h-55.25a1.75 1.75 0 0 0 0 3.5h55.25v3.024h-66.988a7.847 7.847 0 1 1 0-15.693h80.269zm-4.891 7.665a1.75 1.75 0 0 0 -1.323.6l-3.567 4.118v-8.883h9.781v8.887l-3.568-4.118a1.75 1.75 0 0 0 -1.323-.604zm.5 5h-1.008l.5-.582zm-52.609 42.667-3.568-4.118a1.75 1.75 0 0 0 -2.646 0l-3.567 4.118v-8.886h9.781zm-4.891-.3 2.809 3.242h-5.617zm67.391 3.242h-59v-5.3h59zm-59-8.8v-3.028h53.5v3.024zm53.5-12.669h-68.531a1.75 1.75 0 0 0 0 3.5h68.531v2.645h-68.531a1.75 1.75 0 0 0 -1.75 1.75v4.774h-9.988a7.847 7.847 0 1 1 0-15.693h80.269zm5.5-6.524h-85.769a11.347 11.347 0 1 0 0 22.693h9.988v5.3h-10.069a16.65 16.65 0 1 1 0-33.3h85.85zm0-8.8h-85.85a16.65 16.65 0 1 1 0-33.3h85.85v5.3h-85.769a11.347 11.347 0 1 0 0 22.693h66.988v.91a1.75 1.75 0 0 0 3.073 1.139l1.781-2.056h7.077l1.777 2.056a1.75 1.75 0 0 0 3.073-1.146v-.91h2z"/></svg>