<svg id="Layer_1" height="512" viewBox="0 0 128 128" width="512" xmlns="http://www.w3.org/2000/svg" data-name="Layer 1"><path d="m103.266 9.25h-71.333a1.75 1.75 0 0 0 -1.75 1.75v5.206h-5.449a1.75 1.75 0 0 0 -1.75 1.75v99.044a1.75 1.75 0 0 0 1.75 1.75h71.333a1.75 1.75 0 0 0 1.75-1.75v-5.206h5.448a1.75 1.75 0 0 0 1.75-1.75v-99.044a1.75 1.75 0 0 0 -1.749-1.75zm-8.948 106h-67.834v-95.544h67.833zm7.2-6.956h-3.7v-90.338a1.75 1.75 0 0 0 -1.75-1.75h-62.385v-3.456h67.833z"/><path d="m88.869 23.444h-56.936a1.75 1.75 0 0 0 -1.75 1.75v15.512a1.75 1.75 0 0 0 1.75 1.75h56.936a1.75 1.75 0 0 0 1.75-1.75v-15.512a1.75 1.75 0 0 0 -1.75-1.75zm-1.75 15.512h-53.436v-12.012h53.436z"/><path d="m55.507 49.456h-23.574a1.75 1.75 0 0 0 -1.75 1.75v23.574a1.75 1.75 0 0 0 1.75 1.75h23.574a1.75 1.75 0 0 0 1.75-1.75v-23.574a1.75 1.75 0 0 0 -1.75-1.75zm-1.75 23.574h-20.074v-20.074h20.074z"/><path d="m88.869 49.456h-23.574a1.75 1.75 0 0 0 -1.75 1.75v23.574a1.75 1.75 0 0 0 1.75 1.75h23.574a1.75 1.75 0 0 0 1.75-1.75v-23.574a1.75 1.75 0 0 0 -1.75-1.75zm-1.75 23.574h-20.074v-20.074h20.074z"/><path d="m55.507 83.53h-23.574a1.75 1.75 0 0 0 -1.75 1.75v23.575a1.75 1.75 0 0 0 1.75 1.75h23.574a1.75 1.75 0 0 0 1.75-1.75v-23.575a1.75 1.75 0 0 0 -1.75-1.75zm-1.75 23.575h-20.074v-20.075h20.074z"/><path d="m88.869 83.53h-23.574a1.75 1.75 0 0 0 -1.75 1.75v23.575a1.75 1.75 0 0 0 1.75 1.75h23.574a1.75 1.75 0 0 0 1.75-1.75v-23.575a1.75 1.75 0 0 0 -1.75-1.75zm-1.75 23.575h-20.074v-20.075h20.074z"/><path d="m37.664 64.743h4.306v4.306a1.75 1.75 0 0 0 3.5 0v-4.306h4.306a1.75 1.75 0 0 0 0-3.5h-4.306v-4.306a1.75 1.75 0 0 0 -3.5 0v4.307h-4.306a1.75 1.75 0 0 0 0 3.5z"/><path d="m42.48 92.25a1.738 1.738 0 0 0 1.24.51 1.831 1.831 0 0 0 .34-.03 1.558 1.558 0 0 0 .33-.1 1.744 1.744 0 0 0 .95-.95 1.7 1.7 0 0 0 .13-.67 1.949 1.949 0 0 0 -.03-.34c-.03-.11-.06-.22-.1-.33a2.275 2.275 0 0 0 -.17-.3 1.382 1.382 0 0 0 -.21-.271 1.822 1.822 0 0 0 -2.48 0 1.364 1.364 0 0 0 -.21.271 2.28 2.28 0 0 0 -.17.3c-.04.11-.07.22-.1.33a1.95 1.95 0 0 0 -.03.34 1.7 1.7 0 0 0 .13.67 1.966 1.966 0 0 0 .38.57z"/><path d="m45.34 102.45a2.285 2.285 0 0 0 -.17-.3 1.717 1.717 0 0 0 -.21-.26 1.753 1.753 0 0 0 -1.58-.479 1.372 1.372 0 0 0 -.33.1 1.072 1.072 0 0 0 -.3.16 1.421 1.421 0 0 0 -.27.22 2.737 2.737 0 0 0 -.22.26c-.06.1-.11.2-.16.3s-.07.22-.1.33a2.028 2.028 0 0 0 -.03.34 1.75 1.75 0 1 0 3.5 0 2.026 2.026 0 0 0 -.03-.34c-.03-.111-.06-.221-.1-.331z"/><path d="m37.664 98.817h12.112a1.75 1.75 0 0 0 0-3.5h-12.112a1.75 1.75 0 0 0 0 3.5z"/><path d="m71.025 98.817h12.113a1.75 1.75 0 0 0 0-3.5h-12.113a1.75 1.75 0 0 0 0 3.5z"/><path d="m71.562 68.513a1.749 1.749 0 0 0 2.475 0l3.045-3.045 3.045 3.045a1.75 1.75 0 0 0 2.473-2.475l-3.045-3.045 3.045-3.045a1.75 1.75 0 0 0 -2.475-2.475l-3.045 3.045-3.045-3.045a1.75 1.75 0 0 0 -2.475 2.475l3.045 3.045-3.045 3.045a1.749 1.749 0 0 0 .002 2.475z"/></svg>