<svg id="Layer_1" height="512" viewBox="0 0 128 128" width="512" xmlns="http://www.w3.org/2000/svg" data-name="Layer 1"><path d="m117.761 93.485c-.057-.028-5.836-2.886-13.14-10.825-3.031-3.295-2.5-11.072-1.944-19.305.724-10.678 1.545-22.78-4.2-31.862-3.487-5.515-7.877-8.821-13.047-9.828-6.568-1.281-12.481 1.566-14.932 3-4.398-3.66-21.863-16.165-38.459-.25-8.819 8.458-7.853 24.044-7 37.794.557 8.983 1.083 17.468-1.66 20.45-7.3 7.939-13.083 10.8-13.137 10.823a1.75 1.75 0 0 0 .758 3.329h15.653a30.115 30.115 0 0 0 -7.753 20.189 1.75 1.75 0 0 0 3.5 0 26.769 26.769 0 0 1 26.741-26.739h3.984a11 11 0 0 0 21.585 0h4.15a26.769 26.769 0 0 1 26.74 26.739 1.75 1.75 0 0 0 3.5 0 30.115 30.115 0 0 0 -7.75-20.189h15.65a1.75 1.75 0 0 0 .761-3.326zm-81.293-27.779c-.058 0-.114.013-.172.013a3.945 3.945 0 0 1 -.3-7.879c-.033.612-.074 1.222-.074 1.838a33.236 33.236 0 0 0 .546 6.028zm2.949-6.028a29.535 29.535 0 0 1 1.03-7.771 28.1 28.1 0 0 0 13.053 1.166 27.328 27.328 0 0 0 17.766-10.1 25.688 25.688 0 0 0 15.637 6.872 29.3 29.3 0 0 1 1.676 9.833c0 14.934-11.028 27.083-24.583 27.083s-24.579-12.149-24.579-27.083zm52.611-1.836a3.945 3.945 0 0 1 -.324 7.877c-.058 0-.113-.014-.171-.017a33.238 33.238 0 0 0 .55-6.024c0-.615-.022-1.227-.055-1.836zm-28.111 37.814a7.505 7.505 0 0 1 -7.427-6.514 25.769 25.769 0 0 0 14.847.054 7.5 7.5 0 0 1 -7.42 6.46zm33.7-2.345a30.082 30.082 0 0 0 -18.76-6.549h-1.834a30.192 30.192 0 0 0 13.677-17.618 7.452 7.452 0 1 0 1-14.835c-.02 0-.041 0-.061 0a32.412 32.412 0 0 0 -1.869-6.785 1.75 1.75 0 0 0 -1.546-1.1 21.94 21.94 0 0 1 -15.824-7.356 1.727 1.727 0 0 0 -1.464-.615 1.747 1.747 0 0 0 -1.358.822 23.4 23.4 0 0 1 -16.569 10.333 24.365 24.365 0 0 1 -13-1.614 1.75 1.75 0 0 0 -2.341 1.046 32.579 32.579 0 0 0 -1.315 5.272h-.055a7.455 7.455 0 1 0 1 14.834 30.192 30.192 0 0 0 13.679 17.615h-1.836a30.082 30.082 0 0 0 -18.76 6.549h-13.46a67.577 67.577 0 0 0 9.034-8.281c3.753-4.08 3.208-12.864 2.577-23.037-.805-12.992-1.719-27.716 5.929-35.051 16.629-15.949 33.925.452 34.65 1.157a1.753 1.753 0 0 0 2.239.17c.063-.045 6.472-4.535 13.44-3.163 4.175.822 7.784 3.6 10.729 8.258 5.132 8.116 4.353 19.612 3.664 29.755-.638 9.4-1.188 17.51 2.86 21.912a67.567 67.567 0 0 0 9.034 8.281z"/><path d="m37.667 104.5a1.75 1.75 0 0 0 -1.75 1.75v10.732a1.75 1.75 0 1 0 3.5 0v-10.732a1.75 1.75 0 0 0 -1.75-1.75z"/><path d="m90.333 104.5a1.75 1.75 0 0 0 -1.75 1.75v10.732a1.75 1.75 0 1 0 3.5 0v-10.732a1.75 1.75 0 0 0 -1.75-1.75z"/><path d="m53.329 66.878a5.135 5.135 0 0 0 5.129-5.13 1.75 1.75 0 0 0 -3.5 0 1.629 1.629 0 1 1 -3.259 0 1.75 1.75 0 0 0 -3.5 0 5.135 5.135 0 0 0 5.13 5.13z"/><path d="m74.671 66.878a5.135 5.135 0 0 0 5.13-5.13 1.75 1.75 0 0 0 -3.5 0 1.629 1.629 0 1 1 -3.259 0 1.75 1.75 0 0 0 -3.5 0 5.135 5.135 0 0 0 5.129 5.13z"/><path d="m109.437 16.846a1.75 1.75 0 0 0 1.75-1.75v-4.096a1.75 1.75 0 1 0 -3.5 0v4.1a1.75 1.75 0 0 0 1.75 1.746z"/><path d="m109.437 20.279a1.75 1.75 0 0 0 -1.75 1.75v4.1a1.75 1.75 0 1 0 3.5 0v-4.1a1.75 1.75 0 0 0 -1.75-1.75z"/><path d="m101.875 20.313h4.1a1.75 1.75 0 0 0 0-3.5h-4.1a1.75 1.75 0 0 0 0 3.5z"/><path d="m112.9 20.313h4.1a1.75 1.75 0 0 0 0-3.5h-4.1a1.75 1.75 0 0 0 0 3.5z"/><path d="m16.948 23.909a1.75 1.75 0 0 0 1.75-1.75v-2.221a1.75 1.75 0 0 0 -3.5 0v2.222a1.75 1.75 0 0 0 1.75 1.749z"/><path d="m16.948 27.861a1.75 1.75 0 0 0 -1.75 1.75v2.222a1.75 1.75 0 1 0 3.5 0v-2.222a1.75 1.75 0 0 0 -1.75-1.75z"/><path d="m11 27.635h2.222a1.75 1.75 0 0 0 0-3.5h-2.222a1.75 1.75 0 0 0 0 3.5z"/><path d="m18.924 25.885a1.75 1.75 0 0 0 1.75 1.75h2.226a1.75 1.75 0 0 0 0-3.5h-2.226a1.75 1.75 0 0 0 -1.75 1.75z"/></svg>