<?xml version="1.0" encoding="iso-8859-1"?>
<!-- Generator: Adobe Illustrator 19.0.0, SVG Export Plug-In . SVG Version: 6.00 Build 0)  -->
<svg version="1.1" id="Capa_1" xmlns="http://www.w3.org/2000/svg" xmlns:xlink="http://www.w3.org/1999/xlink" x="0px" y="0px"
	 viewBox="0 0 512 512" style="enable-background:new 0 0 512 512;" xml:space="preserve">
<g>
	<g>
		<path d="M512,298.886c0-0.016-0.002-0.031-0.002-0.047c-0.101-73.25-59.722-132.812-132.996-132.812c-5.522,0-10,4.477-10,10
			v112.859h-66.034l-39.899-39.836c-1.875-1.872-4.416-2.923-7.065-2.923h-29.292c0.134-3.206-0.225-6.459-1.12-9.66l-24.416-87.316
			c-6.79-24.284-26.133-42.653-49.763-48.86c9.852-9.788,15.962-23.337,15.962-38.287v-8c0-29.776-24.225-53.999-53.999-53.999
			c-29.774,0-53.999,24.224-53.999,53.999v8c0,14.951,6.111,28.5,15.962,38.287c-23.631,6.207-42.973,24.577-49.764,48.861
			L1.159,236.467c-2.621,9.374-0.75,19.198,5.134,26.953c5.884,7.755,14.841,12.202,24.575,12.202c3.291,0,6.201-1.597,8.023-4.05
			L24.33,360.38c-0.475,2.896,0.347,5.855,2.246,8.092c1.9,2.237,4.688,3.526,7.622,3.526h29.179v80.878
			c-22.864,4.648-40.124,24.906-40.124,49.12c0,5.522,4.478,10,10,10h80.124h80.124c5.522,0,10-4.478,10-10
			c0-24.215-17.261-44.472-40.124-49.12v-80.878h29.179c2.935,0,5.722-1.289,7.622-3.526c1.899-2.236,2.721-5.195,2.246-8.092
			l-14.316-87.314c1.769,1.584,4.098,2.555,6.66,2.555h1.119c8.537,0,16.475-3.422,22.268-9.495h33.714l22.797,22.761h-18.659
			c-5.522,0-10,4.478-10,10c0,53.377,36.422,98.401,85.717,111.543c0.26,0.337,0.535,0.665,0.844,0.974l26.904,26.904l-13.52,13.52
			c-4.289-2.161-9.127-3.387-14.249-3.387c-17.522,0-31.778,14.256-31.778,31.778s14.256,31.778,31.778,31.778
			s31.778-14.256,31.778-31.778c0-5.122-1.225-9.96-3.387-14.249l13.52-13.52l13.52,13.52c-2.161,4.289-3.387,9.127-3.387,14.249
			c0,17.522,14.256,31.778,31.778,31.778s31.778-14.256,31.778-31.778s-14.256-31.778-31.778-31.778
			c-5.122,0-9.96,1.225-14.249,3.387l-13.52-13.52l25.156-25.155c55.878-7.951,98.997-56.061,99.089-114.079
			c0-0.016,0.002-0.031,0.002-0.047c0.001-0.024,0-0.047,0-0.071C511.999,298.933,512,298.909,512,298.886z M79.377,54.003
			c0-18.748,15.252-34,33.999-34c18.748,0,33.999,15.252,33.999,34v8c0,18.748-15.252,33.999-33.999,33.999
			S79.377,80.75,79.377,62.003V54.003z M103.377,491.996H44.958c4.133-11.71,15.312-20.125,28.419-20.125h30V491.996z
			 M103.377,451.872h-20v-79.874h20V451.872z M181.794,491.996h-58.418v-20.125h30C166.483,471.871,177.661,480.286,181.794,491.996
			z M123.376,451.872v-79.874h20v79.874H123.376z M204.525,251.331c-2.069,2.727-5.219,4.291-8.642,4.291h-1.117
			c-3.726,0-6.969,2.042-8.69,5.064l-12.839-78.303c-0.894-5.45-6.029-9.146-11.486-8.25c-5.45,0.894-9.144,6.036-8.25,11.486
			l27.279,166.379H45.972l3.279-20h58.088c5.522,0,10-4.478,10-10s-4.478-10-10-10H52.53l20.72-126.38
			c0.894-5.45-2.8-10.593-8.25-11.486c-5.454-0.897-10.593,2.801-11.486,8.25l-13.14,80.145c-1.304-4.007-5.065-6.906-9.506-6.906
			c-3.423,0-6.573-1.564-8.643-4.292c-2.068-2.727-2.727-6.182-1.805-9.478l24.416-87.316c6.015-21.511,25.816-36.534,48.151-36.534
			h40.775c22.337,0,42.137,15.024,48.151,36.534l24.416,87.316C207.252,245.149,206.594,248.603,204.525,251.331z M331.699,491.996
			c-6.494,0-11.778-5.284-11.778-11.778s5.284-11.778,11.778-11.778s11.778,5.284,11.778,11.778S338.193,491.996,331.699,491.996z
			 M415.522,468.44c6.494,0,11.778,5.283,11.778,11.778c0,6.494-5.284,11.778-11.778,11.778s-11.778-5.284-11.778-11.778
			S409.028,468.44,415.522,468.44z M389.002,186.467c23.66,2.083,45.244,11.496,62.478,25.94l-62.478,62.478V186.467z
			 M373.61,424.164l-9.851-9.851h19.703L373.61,424.164z M396.573,394.313h-35.142c-49.243,0-89.895-37.488-94.906-85.428h28.17
			l34.91,34.854c1.952,1.949,4.509,2.924,7.065,2.924c2.562,0,5.124-0.979,7.076-2.935c3.902-3.908,3.897-10.24-0.011-14.142
			l-20.736-20.703h54.393c0.061,0.01,0.122,0.018,0.183,0.026c0.146,0.021,0.291,0.049,0.439,0.063
			c0.328,0.032,0.657,0.05,0.987,0.05h68.64c-2.539,12.688-9.748,24.191-20.37,31.953c-4.459,3.259-5.432,9.516-2.174,13.975
			c1.959,2.68,4.999,4.101,8.082,4.101c2.047,0,4.113-0.627,5.893-1.927c15.772-11.526,26.129-29.015,28.865-48.101h23.524
			C486.385,356.897,445.768,394.313,396.573,394.313z M403.284,288.887l62.338-62.338c14.415,17.199,23.816,38.733,25.925,62.338
			H403.284z"/>
	</g>
</g>
<g>
	<g>
		<path d="M397.166,350.977l-0.593,0.003c-5.522,0-10,4.478-10,10s4.478,10,10,10l0.765-0.003c5.522-0.048,9.961-4.563,9.914-10.086
			C407.203,355.369,402.676,350.948,397.166,350.977z"/>
	</g>
</g>
<g>
	<g>
		<path d="M147.425,314.929c-1.861-1.86-4.44-2.93-7.07-2.93s-5.21,1.069-7.069,2.93c-1.86,1.86-2.931,4.44-2.931,7.07
			s1.07,5.21,2.931,7.069c1.859,1.86,4.439,2.931,7.069,2.931s5.21-1.07,7.07-2.931c1.86-1.859,2.93-4.439,2.93-7.069
			C150.355,319.358,149.286,316.789,147.425,314.929z"/>
	</g>
</g>
<g>
</g>
<g>
</g>
<g>
</g>
<g>
</g>
<g>
</g>
<g>
</g>
<g>
</g>
<g>
</g>
<g>
</g>
<g>
</g>
<g>
</g>
<g>
</g>
<g>
</g>
<g>
</g>
<g>
</g>
</svg>
