<svg id="elegant_x5F_top" enable-background="new 0 0 300 300" height="512" viewBox="0 0 300 300" width="512" xmlns="http://www.w3.org/2000/svg"><path d="m200.666 176.597 6.191-43.344c11.846-12.902 8.131-30.258 6.891-34.773l9.629-48.156c.42-2.094-.881-4.148-2.951-4.664l-26.201-6.551c-.318-.082-.645-.121-.971-.121h-3.814c-1.756 0-3.305 1.145-3.822 2.82-2.055 6.664-14.461 13.555-31.666 13.555-17.203 0-29.609-6.891-31.664-13.555-.518-1.676-2.066-2.82-3.822-2.82h-3.814c-.326 0-.652.039-.971.121l-26.201 6.551c-2.07.516-3.371 2.57-2.951 4.664l9.629 48.156c-1.24 4.516-4.955 21.871 6.891 34.773l6.191 43.344-32.193 64.387c-.562 1.125-.562 2.453 0 3.578 2.52 5.039 10.934 12.82 25.779 9.949v7.914c0 1.836 1.25 3.434 3.029 3.879 1.143.289 26.645 6.473 35.963-6.43h28.271c4.703 6.512 13.527 8.164 21.262 8.164 7.594 0 14.137-1.594 14.701-1.734 1.779-.445 3.029-2.043 3.029-3.879v-7.914c14.846 2.871 23.26-4.91 25.779-9.949.562-1.125.562-2.453 0-3.578zm-98.598-76.665c.221-.66.264-1.367.127-2.051l-9.076-45.387 22.023-5.508h.666c5.109 9.773 20.166 16.375 38.143 16.375 17.979 0 33.035-6.602 38.145-16.375l22.689 5.508-9.076 45.387c-.135.676-.09 1.387.123 2.039.059.176 5.564 17.52-5.58 28.668-.613.613-1.01 1.406-1.131 2.262l-5.888 41.211h-6.312l.507-27.469c.039-2.211-1.717-4.031-3.926-4.074-2.061.055-4.031 1.719-4.074 3.926l-.508 27.617h-49.935l-.51-27.617c-.041-2.207-1.881-3.914-4.074-3.926-2.209.043-3.967 1.863-3.926 4.074l.508 27.469h-6.312l-5.888-41.211c-.121-.855-.518-1.648-1.131-2.262-11.144-11.148-5.638-28.491-5.584-28.656zm-18.826 142.547 31.209-62.418h5.699l-18.561 65.994c-10.882 2.953-16.273-1.119-18.347-3.576zm91.086 12.279v-51.286c0-2.211-1.791-4-4-4s-4 1.789-4 4v48.402h-24.752v-48.402c0-2.211-1.791-4-4-4s-4 1.789-4 4v51.286c-4.149 6.521-17.253 5.758-24.752 4.421v-9.301l19.635-69.816h50.985l19.635 69.816v9.301c-7.496 1.333-20.602 2.103-24.751-4.421zm31.987-8.702-18.562-65.995h5.699l31.207 62.41c-2.094 2.482-7.481 6.535-18.344 3.585z"/><path d="m60.213 94.304c-1.562-1.562-4.098-1.562-5.656 0-1.562 1.562-1.562 4.094 0 5.656l5.658 5.656c.781.781 1.805 1.172 2.828 1.172s2.049-.391 2.828-1.172c1.562-1.562 1.562-4.094 0-5.656z"/><path d="m40.414 74.507c-1.562-1.562-4.098-1.562-5.656 0-1.562 1.562-1.562 4.094 0 5.656l5.658 5.656c.781.781 1.805 1.172 2.828 1.172s2.049-.391 2.828-1.172c1.562-1.562 1.562-4.094 0-5.656z"/><path d="m60.215 74.507-5.658 5.656c-1.562 1.562-1.562 4.094 0 5.656.781.781 1.805 1.172 2.828 1.172s2.047-.391 2.828-1.172l5.658-5.656c1.562-1.562 1.562-4.094 0-5.656s-4.094-1.563-5.656 0z"/><path d="m40.416 94.304-5.658 5.656c-1.562 1.562-1.562 4.094 0 5.656.781.781 1.805 1.172 2.828 1.172s2.047-.391 2.828-1.172l5.658-5.656c1.562-1.562 1.562-4.094 0-5.656s-4.093-1.563-5.656 0z"/><path d="m46.315 31.962c-2.264 0-4.099 1.835-4.099 4.099s1.835 4.099 4.099 4.099 4.099-1.835 4.099-4.099-1.836-4.099-4.099-4.099z"/><path d="m262.315 47.962c-2.264 0-4.099 1.835-4.099 4.099s1.835 4.099 4.099 4.099 4.099-1.835 4.099-4.099-1.836-4.099-4.099-4.099z"/><path d="m78.315 168.161c2.264 0 4.099-1.835 4.099-4.099s-1.835-4.099-4.099-4.099-4.099 1.835-4.099 4.099 1.835 4.099 4.099 4.099z"/><path d="m246.315 104.061c-6.617 0-12 5.383-12 12s5.383 12 12 12 12-5.383 12-12-5.383-12-12-12zm0 16c-2.205 0-4-1.793-4-4s1.795-4 4-4 4 1.793 4 4-1.795 4-4 4z"/></svg>