<?xml version="1.0"?>
<svg xmlns="http://www.w3.org/2000/svg" viewBox="0 0 64 64" width="512" height="512"><g id="Outline"><path d="M61,60H40.58a15,15,0,0,1-7.5-2L15,47.55a4,4,0,0,1-1.46-5.46l6-10.39,10.3,5.95a5,5,0,0,1-6.24,1l-3.72-2.15a1,1,0,0,0-1,1.74l3.72,2.14a6.87,6.87,0,0,0,3.49.94,7.05,7.05,0,0,0,1.82-.24,6.91,6.91,0,0,0,4.25-3.26,1,1,0,0,0-.37-1.37l-.13-.07,5.74-.1a.45.45,0,0,1,0,.45l-1.57,2.72a2.41,2.41,0,0,0-.24,1.84,2.44,2.44,0,0,0,1.13,1.48,1,1,0,0,0,1.37-.37,1,1,0,0,0-.37-1.36.46.46,0,0,1-.2-.27.43.43,0,0,1,0-.32l1.57-2.72a2.43,2.43,0,0,0-.89-3.32,1.12,1.12,0,0,0-.52-.14l-7.8.14a4.79,4.79,0,0,1-4-2,4.84,4.84,0,0,1-.59-4.46,1,1,0,0,0-.43-1.22l-2.73-1.58a1,1,0,0,0-1.37.37l-2.5,4.33h0L11.8,41.09A6,6,0,0,0,14,49.28L32.08,59.72A17,17,0,0,0,40.58,62H61a1,1,0,0,0,0-2ZM22,27.37l1.17.67a6.71,6.71,0,0,0,.12,3.53L20.54,30Z"/><path d="M50,44.05V43a1,1,0,0,0-2,0v1H46V43a1,1,0,0,0-2,0v1H42.58a1,1,0,0,0,0,2H44v1a1,1,0,0,0,2,0V46h2v1a1,1,0,0,0,2,0v-1a11,11,0,0,1,8.21,5H50a1,1,0,0,0,0,2h9a1.43,1.43,0,0,0,.22,0A10.91,10.91,0,0,1,60,56H42.85a12,12,0,0,1-6-1.61L16.48,42.63a1,1,0,0,0-1,1.74L35.85,56.12a14,14,0,0,0,7,1.88H61a1,1,0,0,0,1-1A13,13,0,0,0,50,44.05Z"/><path d="M7,30h8a1,1,0,0,0,0-2H7a1,1,0,0,0,0,2Z"/><path d="M22,57H3a1,1,0,0,0,0,2H22a1,1,0,0,0,0-2Z"/><path d="M3,38h7a1,1,0,0,0,0-2H3a1,1,0,0,0,0,2Z"/><path d="M3,47H7a1,1,0,0,0,0-2H3a1,1,0,0,0,0,2Z"/><path d="M6,53a1,1,0,0,0,1,1h8a1,1,0,0,0,0-2H7A1,1,0,0,0,6,53Z"/><path d="M40.29,41.29l-3,3a1,1,0,0,0,0,1.42,1,1,0,0,0,1.42,0l3-3a1,1,0,0,0-1.42-1.42Z"/><path d="M45,27a1,1,0,0,0-1,1v7a1,1,0,0,0,1,1h5a1,1,0,0,0,0-2H46V28A1,1,0,0,0,45,27Z"/><path d="M31.05,25.29c-.26.38-.5.76-.73,1.16l0,.05s0,0,0,.06a16.89,16.89,0,0,0-1.8,4.57,1,1,0,1,0,1.95.45,14.93,14.93,0,0,1,1.14-3.19l2.56,1.48a1,1,0,0,0,.5.13,1,1,0,0,0,.5-1.87l-2.57-1.48c.17-.24.33-.49.51-.72l0,0,.08-.12a15,15,0,0,1,2.53-2.57,1,1,0,0,0,.22-.14v0c.24-.18.48-.36.72-.52l1.49,2.58a1,1,0,0,0,1.37.36,1,1,0,0,0,.37-1.36l-1.49-2.57A14.83,14.83,0,0,1,44,20v3a1,1,0,0,0,2,0V20.05a14.91,14.91,0,0,1,5.61,1.5l-1.48,2.56a1,1,0,0,0,.37,1.36,1,1,0,0,0,1.37-.36l1.48-2.57a15.17,15.17,0,0,1,4.11,4.11l-2.57,1.48a1,1,0,0,0,.5,1.87,1,1,0,0,0,.5-.13l2.56-1.48A14.91,14.91,0,0,1,60,34H57a1,1,0,0,0,0,2h3a14.79,14.79,0,0,1-1.52,5.6l-2.55-1.47a1,1,0,0,0-1,1.74l2.54,1.46,0,.06a1,1,0,0,0,.26,1.39,1,1,0,0,0,.56.17,1,1,0,0,0,.83-.44c.18-.26.34-.52.5-.79a1.28,1.28,0,0,0,.17-.22.88.88,0,0,0,.05-.15A16.76,16.76,0,0,0,62,35a17,17,0,0,0-2.25-8.42.41.41,0,0,0,0-.08l-.07-.08c-.22-.38-.46-.76-.71-1.12L61.26,23a1,1,0,0,0,0-1.42l-2.82-2.82a1,1,0,0,0-1.42,0L54.7,21.06c-.36-.25-.74-.49-1.12-.71l-.08-.07-.08,0a16.93,16.93,0,0,0-5.42-2V16h2a1,1,0,0,0,1-1V11a1,1,0,0,0-1-1H40a1,1,0,0,0,0,2h9v2H40a1,1,0,0,0,0,2h2v2.27A16.81,16.81,0,0,0,35.29,21L33,18.74a1,1,0,0,0-1.42,0l-2.82,2.82a1,1,0,0,0,0,1.42Zm26.68-4.43,1.41,1.41-1.45,1.46a19,19,0,0,0-1.42-1.42ZM44,16h2v2.05c-.33,0-.66-.05-1-.05s-.67,0-1,0ZM32.27,20.86l1.44,1.43a15.75,15.75,0,0,0-1.42,1.41l-1.43-1.43Z"/></g></svg>
